# Blender 4.2.2 LTS
# www.blender.org
mtllib maennchen.mtl
o Cube
v 1.000000 -2.559626 -1.000000
v 1.000000 2.559626 -1.000000
v 1.000000 -2.559626 1.000000
v 1.000000 2.559626 1.000000
v -1.000000 -2.559626 -1.000000
v -1.000000 2.559626 -1.000000
v -1.000000 -2.559626 1.000000
v -1.000000 2.559626 1.000000
v 1.000000 -0.853209 -1.000000
v 1.000000 0.853209 -1.000000
v -1.000000 0.853209 1.000000
v -1.000000 -0.853209 1.000000
v 1.000000 -0.853209 1.000000
v 1.000000 0.853209 1.000000
v -1.000000 -0.853209 -1.000000
v -1.000000 0.853209 -1.000000
v -6.000000 2.559626 -1.000000
v -6.000000 2.559626 1.000000
v -6.000000 0.853209 -1.000000
v -6.000000 0.853209 1.000000
v 6.000000 0.853209 -1.000000
v 6.000000 2.559626 -1.000000
v 6.000000 0.853209 1.000000
v 6.000000 2.559626 1.000000
v -3.000000 -0.853209 1.000000
v -3.000000 -2.559626 1.000000
v -3.000000 -2.559626 -1.000000
v -3.000000 -0.853209 -1.000000
v 3.000000 -2.559626 -1.000000
v 3.000000 -2.559626 1.000000
v 3.000000 -0.853209 -1.000000
v 3.000000 -0.853209 1.000000
v 1.000000 -5.559627 -1.000000
v 1.000000 -5.559627 1.000000
v -1.000000 -5.559627 1.000000
v -1.000000 -5.559627 -1.000000
v -3.000000 -5.559627 1.000000
v -3.000000 -5.559627 -1.000000
v 3.000000 -5.559627 -1.000000
v 3.000000 -5.559627 1.000000
v -1.000000 3.559626 -1.000000
v -1.000000 3.559626 1.000000
v 1.000000 3.559626 -1.000000
v 1.000000 3.559626 1.000000
v -2.894069 3.559626 -2.894069
v -2.894069 3.559626 2.894069
v 2.894069 3.559626 -2.894069
v 2.894069 3.559626 2.894069
v -2.894069 8.296074 -2.894069
v -2.894069 8.296074 2.894069
v 2.894069 8.296074 -2.894069
v 2.894069 8.296074 2.894069
v -2.894069 8.296074 -2.894069
v -2.894069 8.296074 2.894069
v 2.894069 8.296074 -2.894069
v 2.894069 8.296074 2.894069
vn -0.0000 -1.0000 -0.0000
vn -0.0000 -0.0000 1.0000
vn -1.0000 -0.0000 -0.0000
vn -0.0000 -0.0000 -1.0000
vn 1.0000 -0.0000 -0.0000
vn -0.0000 1.0000 -0.0000
vt 0.625000 0.500000
vt 0.875000 0.500000
vt 0.875000 0.750000
vt 0.625000 0.750000
vt 0.541667 0.750000
vt 0.625000 1.000000
vt 0.541667 1.000000
vt 0.375000 0.250000
vt 0.375000 0.500000
vt 0.541667 0.250000
vt 0.625000 0.250000
vt 0.541667 0.500000
vt 0.458333 0.250000
vt 0.458333 0.500000
vt 0.458333 0.750000
vt 0.375000 0.750000
vt 0.458333 0.000000
vt 0.541667 0.000000
vt 0.458333 1.000000
vt 0.375000 1.000000
vt 0.375000 0.000000
vt 0.125000 0.500000
vt 0.125000 0.750000
vt 0.625000 0.000000
s 0
usemtl Material
f 1/1/1 3/4/1 7/3/1 5/2/1
f 13/5/2 12/7/2 7/6/2 3/4/2
f 1/1/3 33/1/3 34/4/3 3/4/3
f 6/8/4 41/8/4 43/9/4 2/9/4
f 7/3/5 35/3/5 36/2/5 5/2/5
f 15/10/4 9/12/4 1/1/4 5/11/4
f 6/8/4 2/9/4 10/14/4 16/13/4
f 16/13/4 10/14/4 9/12/4 15/10/4
f 14/15/2 23/15/2 24/16/2 4/16/2
f 10/14/5 14/15/5 13/5/5 9/12/5
f 11/17/1 20/17/1 19/13/1 16/13/1
f 11/17/3 16/13/3 15/10/3 12/18/3
f 4/16/2 8/20/2 11/19/2 14/15/2
f 14/15/2 11/19/2 12/7/2 13/5/2
f 18/21/3 17/8/3 19/13/3 20/17/3
f 6/22/6 17/22/6 18/23/6 8/23/6
f 16/13/4 19/13/4 17/8/4 6/8/4
f 8/20/2 18/20/2 20/19/2 11/19/2
f 22/9/5 24/16/5 23/15/5 21/14/5
f 2/9/4 22/9/4 21/14/4 10/14/4
f 4/16/6 24/16/6 22/9/6 2/9/6
f 10/14/1 21/14/1 23/15/1 14/15/1
f 25/18/3 28/10/3 27/11/3 26/24/3
f 5/11/4 27/11/4 28/10/4 15/10/4
f 12/7/2 25/7/2 26/6/2 7/6/2
f 15/10/6 28/10/6 25/18/6 12/18/6
f 31/12/5 32/5/5 30/4/5 29/1/5
f 3/4/2 30/4/2 32/5/2 13/5/2
f 9/12/4 31/12/4 29/1/4 1/1/4
f 13/5/6 32/5/6 31/12/6 9/12/6
f 35/3/1 37/3/1 38/2/1 36/2/1
f 33/1/1 39/1/1 40/4/1 34/4/1
f 26/6/2 37/6/2 35/6/2 7/6/2
f 3/4/2 34/4/2 40/4/2 30/4/2
f 27/11/3 38/11/3 37/24/3 26/24/3
f 30/4/5 40/4/5 39/1/5 29/1/5
f 5/11/4 36/11/4 38/11/4 27/11/4
f 29/1/4 39/1/4 33/1/4 1/1/4
f 44/16/1 48/16/1 46/20/1 42/20/1
f 4/16/2 44/16/2 42/20/2 8/20/2
f 8/23/3 42/23/3 41/22/3 6/22/3
f 2/9/5 43/9/5 44/16/5 4/16/5
f 48/16/2 52/16/2 50/20/2 46/20/2
f 42/23/1 46/23/1 45/22/1 41/22/1
f 43/9/1 47/9/1 48/16/1 44/16/1
f 41/8/1 45/8/1 47/9/1 43/9/1
f 51/9/1 55/9/1 56/16/1 52/16/1
f 46/23/3 50/23/3 49/22/3 45/22/3
f 47/9/5 51/9/5 52/16/5 48/16/5
f 45/8/4 49/8/4 51/9/4 47/9/4
f 53/22/6 54/23/6 56/16/6 55/9/6
f 49/8/1 53/8/1 55/9/1 51/9/1
f 52/16/1 56/16/1 54/20/1 50/20/1
f 50/23/1 54/23/1 53/22/1 49/22/1
